<svg width="77" height="77" viewBox="0 0 77 77" fill="none" xmlns="http://www.w3.org/2000/svg">
<path d="M6.59998 46.6V38.6C6.59998 20.9269 20.9269 6.59998 38.6 6.59998C56.2729 6.59998 70.6 20.9269 70.6 38.6V46.6M6.59998 46.6V67.4C6.59998 69.1673 8.03268 70.6 9.79998 70.6H21.6857C23.453 70.6 24.8857 69.1673 24.8857 67.4V49.8C24.8857 48.0326 23.453 46.6 21.6857 46.6H6.59998ZM70.6 46.6V67.4C70.6 69.1673 69.1673 70.6 67.4 70.6H55.5142C53.7469 70.6 52.3142 69.1673 52.3142 67.4V49.8C52.3142 48.0326 53.7469 46.6 55.5142 46.6H70.6Z" stroke="black" stroke-width="4" stroke-linecap="round" stroke-linejoin="round"/>
</svg>
