<svg width="77" height="77" viewBox="0 0 77 77" fill="none" xmlns="http://www.w3.org/2000/svg">
<path d="M29 57.7999V18.8706C29 17.324 30.106 15.9988 31.6276 15.7222L62.3139 10.1428C63.296 9.96428 64.2 10.7188 64.2 11.7171V51.3999M29 57.7999C29 63.102 24.7019 67.3999 19.4 67.3999C14.0981 67.3999 9.79999 63.102 9.79999 57.7999C9.79999 52.4978 14.0981 48.1999 19.4 48.1999C24.7019 48.1999 29 52.4978 29 57.7999ZM64.2 51.3999C64.2 56.702 59.9021 60.9999 54.6 60.9999C49.2979 60.9999 45 56.702 45 51.3999C45 46.0978 49.2979 41.7999 54.6 41.7999C59.9021 41.7999 64.2 46.0978 64.2 51.3999Z" stroke="black" stroke-width="4" stroke-linecap="round" stroke-linejoin="round"/>
</svg>
