<?xml version="1.0" standalone="no"?>
<!DOCTYPE svg PUBLIC "-//W3C//DTD SVG 20010904//EN"
 "http://www.w3.org/TR/2001/REC-SVG-20010904/DTD/svg10.dtd">
<svg version="1.0" xmlns="http://www.w3.org/2000/svg"
 width="1936.000000pt" height="1936.000000pt" viewBox="0 0 1936.000000 1936.000000"
 preserveAspectRatio="xMidYMid meet">
<metadata>
Created by potrace 1.14, written by Peter Selinger 2001-2017
</metadata>
<g transform="translate(0.000000,1936.000000) scale(0.100000,-0.100000)"
fill="#000000" stroke="none">
<path d="M16247 12214 c-1 -1 -69 -5 -152 -9 -82 -4 -166 -8 -185 -10 -161
-14 -196 -17 -210 -20 -9 -2 -41 -6 -70 -10 -29 -4 -62 -9 -74 -11 -12 -2 -41
-7 -66 -10 -25 -3 -54 -8 -65 -10 -11 -2 -33 -7 -50 -10 -16 -2 -46 -9 -65
-14 -19 -5 -46 -11 -60 -14 -14 -3 -61 -15 -105 -27 -44 -11 -87 -22 -95 -24
-37 -9 -253 -86 -330 -118 -103 -42 -270 -126 -288 -144 -8 -7 -18 -11 -23 -8
-5 4 -9 2 -9 -3 0 -5 -11 -14 -25 -20 -14 -7 -31 -16 -38 -22 -7 -6 -41 -31
-77 -57 -110 -78 -242 -207 -303 -293 -136 -195 -215 -379 -252 -585 -2 -16
-7 -39 -9 -50 -19 -95 -26 -354 -12 -455 15 -108 75 -300 98 -308 4 -2 8 -12
8 -23 0 -10 4 -19 8 -19 5 0 15 -15 24 -32 39 -81 214 -251 313 -304 44 -24
71 -40 88 -53 9 -8 17 -11 17 -7 0 4 12 -1 28 -12 57 -41 405 -152 554 -177
18 -3 40 -8 49 -11 9 -2 32 -7 50 -9 19 -3 45 -7 59 -10 37 -8 101 -17 135
-20 17 -1 48 -5 70 -8 67 -11 174 -23 290 -32 227 -18 400 -24 825 -30 162 -2
320 -6 350 -9 30 -3 91 -8 135 -12 44 -3 89 -8 100 -10 11 -2 40 -7 65 -10 59
-7 213 -42 270 -61 280 -91 395 -294 242 -428 -51 -45 -200 -116 -273 -130
-13 -3 -35 -7 -49 -10 -64 -14 -149 -26 -215 -31 -300 -22 -528 -22 -790 2
-96 8 -198 21 -245 29 -14 3 -43 7 -65 10 -22 3 -51 7 -65 10 -14 3 -38 7 -55
9 -16 3 -66 12 -110 21 -44 10 -90 19 -102 21 -38 7 -306 75 -358 91 -203 61
-407 134 -535 190 -82 36 -288 138 -323 160 -44 28 -53 25 -62 -20 -4 -17 -11
-36 -14 -42 -4 -5 -16 -32 -25 -60 -10 -27 -24 -63 -31 -80 -7 -16 -23 -55
-35 -85 -34 -87 -215 -466 -230 -480 -3 -3 -15 -25 -28 -50 -31 -62 -74 -138
-108 -191 -16 -24 -31 -48 -34 -54 -12 -25 -65 -110 -70 -115 -3 -3 -23 -32
-43 -64 l-36 -59 92 -45 c126 -61 183 -86 317 -138 63 -25 124 -50 135 -54 27
-11 58 -23 68 -25 4 -2 9 -4 12 -5 3 -1 8 -3 13 -4 4 -1 78 -25 164 -54 86
-28 167 -54 180 -56 13 -3 72 -19 132 -35 60 -17 121 -32 135 -35 14 -3 35 -7
46 -10 11 -3 64 -14 117 -25 54 -11 110 -23 125 -26 16 -4 44 -8 63 -11 19 -3
55 -9 80 -14 47 -9 88 -16 153 -25 20 -3 54 -8 75 -11 20 -4 53 -8 72 -10 19
-1 53 -5 75 -8 22 -3 60 -7 85 -10 25 -3 68 -8 95 -11 28 -3 82 -8 120 -10 39
-2 117 -8 175 -11 200 -14 815 -7 995 12 28 2 75 6 105 9 30 2 71 6 90 8 19 3
58 8 85 11 123 15 167 23 295 47 58 11 132 27 165 36 33 8 71 17 84 19 13 3
32 9 41 14 10 5 20 7 23 4 3 -3 15 0 27 6 12 6 29 13 38 15 88 17 355 129 482
202 158 90 341 256 438 396 60 86 142 238 142 261 0 9 4 16 10 16 5 0 9 3 8 8
-2 4 7 34 19 67 59 167 90 369 91 601 0 89 -3 179 -8 200 -5 22 -11 55 -15 74
-19 108 -103 312 -145 350 -3 3 -17 21 -30 40 -36 52 -128 146 -190 193 -30
23 -56 45 -58 50 -2 4 -10 7 -18 7 -8 0 -14 4 -14 9 0 5 -9 13 -20 16 -11 3
-26 12 -32 18 -28 26 -315 157 -377 173 -9 2 -61 17 -115 34 -55 17 -109 32
-120 35 -12 2 -64 14 -116 25 -52 12 -109 22 -126 24 -16 2 -39 6 -50 9 -10 4
-41 9 -69 12 -27 4 -61 8 -75 11 -14 2 -43 6 -65 8 -22 3 -58 7 -80 10 -43 6
-108 12 -340 31 -96 7 -369 16 -660 21 -323 5 -463 13 -560 30 -16 3 -37 5
-45 6 -8 0 -60 9 -115 19 -190 36 -328 97 -402 177 -90 96 -65 231 57 310 46
29 161 76 215 86 69 14 82 16 125 21 25 3 54 8 65 10 129 26 844 26 975 0 14
-3 45 -8 70 -11 47 -5 68 -8 135 -19 87 -14 146 -25 165 -30 8 -2 29 -7 45
-10 37 -6 56 -10 120 -25 28 -6 61 -14 75 -16 14 -3 39 -9 55 -14 17 -5 84
-23 150 -41 153 -40 337 -96 390 -119 11 -5 45 -17 75 -28 143 -51 362 -161
460 -231 25 -17 56 -39 70 -49 14 -9 27 -20 31 -24 4 -6 43 84 40 94 -1 6 204
598 219 633 5 11 38 94 73 185 36 91 83 209 106 264 24 54 39 102 34 107 -13
13 -200 103 -308 149 -55 23 -113 48 -129 56 -16 8 -36 14 -46 14 -9 0 -20 4
-26 9 -5 5 -49 23 -99 40 -49 18 -112 40 -140 50 -67 24 -312 99 -348 106 -10
2 -27 7 -37 10 -10 3 -27 8 -37 10 -10 3 -38 9 -63 16 -25 6 -54 13 -65 15
-11 3 -24 6 -30 8 -19 5 -171 41 -222 51 -13 3 -33 7 -45 10 -13 3 -43 8 -68
11 -25 3 -49 8 -53 11 -4 2 -24 7 -45 9 -20 2 -62 9 -92 14 -69 12 -110 18
-180 26 -30 3 -66 7 -80 10 -14 2 -56 7 -95 10 -38 3 -88 7 -110 10 -84 9
-561 24 -568 18z"/>
<path d="M2707 12144 c-1 -1 -58 -5 -127 -9 -69 -3 -138 -8 -155 -10 -16 -3
-52 -7 -80 -10 -27 -3 -68 -8 -90 -11 -22 -2 -53 -7 -70 -9 -16 -2 -30 -4 -30
-5 0 -1 -14 -4 -75 -14 -155 -26 -342 -77 -510 -139 -47 -17 -87 -31 -90 -31
-3 0 -73 -34 -156 -76 -163 -82 -311 -176 -439 -278 -74 -60 -268 -249 -325
-317 -81 -97 -146 -187 -223 -311 -43 -70 -139 -255 -143 -278 -2 -13 1 -23 9
-23 24 -2 112 -14 127 -18 8 -2 31 -7 50 -10 19 -3 42 -8 50 -10 8 -2 35 -7
60 -10 25 -3 59 -10 75 -15 17 -5 46 -12 65 -15 38 -7 183 -39 240 -54 19 -5
62 -17 94 -25 33 -9 69 -18 80 -21 12 -2 22 -4 24 -6 1 -1 5 -2 10 -3 78 -20
376 -118 390 -129 6 -5 12 -7 12 -4 0 3 46 -13 103 -35 136 -52 136 -52 148
-20 78 211 312 476 509 578 69 35 160 73 160 67 0 -3 6 -1 13 5 12 9 147 45
217 56 113 19 366 26 495 13 240 -23 417 -114 485 -247 29 -56 31 -143 5 -187
-20 -34 -133 -98 -190 -107 -16 -3 -40 -7 -51 -10 -40 -8 -89 -15 -159 -21
-38 -3 -92 -8 -120 -10 -107 -10 -352 -17 -625 -20 -157 -1 -288 -3 -292 -4
-4 0 -7 -264 -7 -586 l1 -585 346 -1 c467 -1 659 -7 842 -24 368 -35 505 -110
496 -271 -3 -57 -23 -124 -37 -124 -5 0 -9 -6 -9 -14 0 -18 -82 -92 -125 -113
-19 -9 -35 -20 -35 -25 0 -4 -6 -8 -14 -8 -7 0 -31 -8 -52 -17 -22 -9 -42 -18
-46 -19 -5 -1 -9 -2 -10 -4 -2 -1 -10 -3 -18 -5 -8 -1 -44 -11 -80 -20 -74
-19 -89 -23 -145 -30 -22 -3 -47 -8 -55 -10 -76 -19 -500 -38 -500 -22 0 4 -8
3 -19 -2 -10 -6 -21 -8 -23 -6 -3 3 -40 8 -84 10 -43 3 -92 8 -109 11 -16 3
-43 7 -60 10 -79 11 -203 49 -285 86 -153 69 -300 225 -390 413 -19 39 -38 75
-42 82 -7 8 -35 -1 -101 -32 -95 -44 -240 -104 -267 -110 -8 -2 -49 -16 -90
-30 -41 -15 -82 -28 -90 -30 -8 -2 -28 -8 -45 -15 -16 -6 -30 -11 -30 -10 0 1
-20 -3 -45 -10 -25 -7 -52 -14 -60 -16 -8 -2 -136 -35 -285 -74 -148 -39 -279
-72 -290 -74 -11 -2 -76 -19 -145 -36 -69 -18 -131 -33 -137 -33 -20 -1 -5
-42 64 -177 53 -104 181 -311 202 -330 4 -3 26 -30 51 -60 259 -317 583 -543
1000 -697 52 -19 100 -36 105 -37 6 -2 42 -12 80 -24 85 -25 217 -59 265 -67
19 -3 43 -8 53 -11 10 -3 30 -7 45 -9 15 -3 36 -6 47 -8 11 -3 45 -8 75 -12
30 -4 66 -10 80 -12 14 -2 48 -5 77 -8 29 -2 65 -7 80 -9 108 -19 663 -27 853
-12 145 11 259 22 325 32 22 3 51 7 65 9 29 5 181 32 225 40 30 6 101 23 120
29 6 1 28 7 50 11 22 5 42 10 45 10 59 14 280 87 338 113 20 9 39 16 42 17 37
11 218 100 284 140 32 19 62 35 66 35 5 0 10 3 12 8 2 4 28 23 58 42 30 19 60
39 66 45 6 6 34 28 62 49 80 62 242 233 300 319 107 160 179 341 208 527 9 57
9 344 1 389 -30 164 -151 385 -254 468 -16 12 -44 36 -62 52 -19 17 -51 38
-70 48 -20 10 -38 21 -41 24 -9 11 -112 61 -175 84 -144 54 -267 74 -530 87
-27 1 -266 -13 -286 -18 -13 -2 -46 -7 -73 -9 -27 -3 -54 -8 -60 -12 -8 -4 -8
-2 -1 5 6 6 19 13 30 15 11 1 26 6 33 10 6 5 12 6 12 2 0 -3 16 1 35 9 20 9
37 15 40 16 42 6 351 112 450 155 17 7 50 21 75 31 112 47 350 181 380 214 3
3 21 17 40 32 93 72 160 150 206 240 13 26 24 49 23 50 0 2 4 15 10 30 34 91
51 260 37 383 -7 61 -30 164 -45 200 -5 11 -9 23 -9 28 -4 25 -122 227 -133
227 -4 0 -10 8 -14 19 -7 23 -161 181 -230 236 -27 22 -52 42 -55 45 -14 14
-102 70 -109 70 -5 0 -11 4 -13 8 -7 17 -239 138 -328 171 -19 7 -48 19 -65
26 -51 22 -175 64 -175 59 0 -2 -12 2 -27 9 -25 12 -116 40 -174 53 -10 2 -27
6 -36 9 -78 20 -296 62 -368 70 -16 2 -50 6 -75 10 -129 18 -292 27 -523 29
-114 1 -209 1 -210 0z"/>
<path d="M8227 12144 c-1 -1 -62 -5 -134 -9 -73 -3 -141 -8 -150 -9 -10 -2
-47 -7 -83 -11 -67 -7 -107 -12 -150 -20 -14 -3 -38 -7 -55 -9 -16 -3 -43 -8
-60 -10 -46 -9 -73 -14 -150 -31 -11 -2 -69 -18 -130 -35 -60 -17 -117 -32
-125 -35 -54 -14 -263 -101 -355 -147 -143 -71 -318 -179 -363 -225 -7 -7 -17
-13 -21 -13 -4 0 -23 -15 -43 -32 -20 -18 -49 -43 -65 -55 -46 -36 -156 -144
-213 -208 -93 -105 -105 -119 -122 -146 -9 -14 -23 -32 -30 -40 -8 -8 -23 -29
-33 -46 -11 -18 -23 -33 -27 -33 -4 0 -8 -7 -8 -15 0 -8 -4 -15 -10 -15 -5 0
-10 -4 -10 -9 0 -9 -58 -109 -70 -121 -9 -9 -109 -214 -112 -230 -2 -8 2 -15
7 -15 6 -1 28 -4 50 -8 22 -4 54 -9 70 -12 76 -10 209 -37 495 -101 25 -5 96
-24 245 -64 135 -36 416 -129 570 -189 44 -17 81 -31 82 -31 5 0 57 105 55
113 -1 4 2 7 8 7 5 0 10 5 10 11 0 16 101 167 146 219 58 66 144 147 189 178
22 15 42 30 43 35 2 4 10 7 17 7 8 0 21 7 30 16 17 17 182 92 213 97 9 1 22 5
27 9 17 10 206 49 262 53 29 2 58 7 63 10 6 3 10 1 10 -5 0 -7 6 -8 18 -2 19
10 283 8 347 -2 111 -18 163 -29 195 -42 77 -33 160 -77 160 -85 0 -5 4 -9 10
-9 19 0 73 -66 98 -118 31 -69 28 -158 -7 -196 -30 -32 -118 -75 -186 -92
-151 -36 -501 -57 -972 -58 l-273 -1 -1 -37 c-5 -286 1 -1133 7 -1134 5 -2
232 -5 504 -8 272 -3 518 -7 545 -10 28 -3 77 -7 110 -10 101 -8 233 -27 280
-40 6 -2 24 -6 40 -11 43 -11 116 -50 142 -74 87 -82 71 -235 -35 -338 -43
-42 -189 -123 -221 -123 -9 0 -21 -4 -27 -9 -9 -8 -168 -50 -215 -55 -13 -2
-42 -6 -64 -10 -202 -32 -586 -38 -736 -11 -31 6 -55 10 -114 19 -70 11 -232
68 -277 98 -14 10 -31 18 -37 18 -6 0 -11 4 -11 9 0 5 -8 12 -17 15 -28 9
-193 173 -193 192 0 3 -11 20 -24 37 -30 40 -106 184 -100 190 2 2 -1 9 -8 14
-9 7 -32 1 -80 -21 -36 -17 -79 -36 -95 -43 -57 -24 -178 -74 -180 -74 -2 0
-8 -2 -15 -4 -27 -10 -203 -67 -213 -69 -5 -2 -30 -8 -55 -15 -25 -7 -46 -13
-47 -12 -2 0 -21 -6 -43 -14 -22 -8 -44 -15 -48 -15 -4 0 -25 -5 -47 -11 -22
-6 -47 -13 -55 -14 -8 -2 -15 -4 -15 -5 0 -1 -9 -3 -21 -5 -11 -3 -47 -12 -80
-20 -32 -9 -66 -18 -74 -20 -8 -1 -80 -19 -160 -40 -80 -20 -156 -38 -170 -41
-14 -3 -32 -7 -40 -9 -8 -2 -16 -4 -17 -5 -2 -2 -6 -3 -10 -4 -58 -13 -121
-30 -130 -35 -23 -12 179 -388 245 -457 6 -7 12 -16 12 -19 0 -4 12 -22 28
-39 15 -18 43 -52 62 -76 75 -94 262 -271 349 -329 20 -14 38 -27 41 -30 15
-18 227 -151 239 -151 5 0 20 -9 34 -20 15 -12 28 -20 29 -18 2 2 28 -9 58
-24 83 -39 137 -62 220 -92 41 -15 87 -32 102 -38 15 -5 28 -9 30 -8 2 1 17
-4 33 -10 17 -7 39 -14 50 -16 11 -2 43 -10 70 -18 28 -8 70 -19 95 -25 25 -5
59 -13 75 -17 17 -4 37 -8 45 -9 19 -3 79 -13 105 -19 43 -9 180 -28 229 -32
28 -2 67 -6 86 -8 207 -25 776 -26 995 -1 17 2 55 6 86 10 31 3 64 7 75 9 10
2 44 7 74 11 30 4 64 9 75 11 11 3 36 7 55 10 19 3 42 7 50 9 8 2 31 7 50 11
19 3 40 7 45 8 17 5 66 17 150 37 242 60 529 178 734 303 50 31 97 60 104 65
6 6 50 40 97 77 139 108 253 231 336 361 30 47 76 130 79 143 1 3 11 25 22 50
20 46 40 102 48 136 2 10 11 46 19 79 23 94 29 151 29 285 0 121 -3 161 -24
245 -29 118 -103 262 -179 349 -142 163 -386 291 -630 331 -19 3 -48 8 -65 10
-24 4 -128 11 -240 17 -32 1 -330 -18 -330 -22 0 -2 -25 -7 -76 -14 -43 -6
-50 1 -10 9 45 10 62 15 245 75 462 151 740 294 921 475 55 55 92 103 118 152
21 40 37 74 37 75 -1 2 1 10 4 18 32 95 41 155 40 280 -1 122 -5 150 -29 245
-60 229 -266 488 -525 660 -25 17 -46 33 -48 38 -2 4 -7 7 -11 7 -4 0 -47 22
-96 49 -73 41 -156 79 -330 151 -11 5 -38 14 -60 21 -22 6 -49 15 -60 20 -49
19 -217 67 -265 76 -14 2 -50 10 -80 18 -30 7 -71 16 -90 19 -19 3 -46 8 -60
11 -14 3 -41 7 -60 10 -19 3 -45 7 -58 10 -13 2 -51 7 -85 10 -34 3 -78 8 -97
10 -105 13 -623 28 -633 19z"/>
<path d="M12138 12075 c-2 -1 -35 -6 -74 -9 -83 -8 -81 -7 -199 -35 -229 -54
-438 -167 -593 -319 -75 -74 -172 -198 -172 -220 0 -6 -3 -12 -8 -14 -14 -6
-79 -161 -100 -238 -65 -236 -67 -435 -8 -715 12 -57 102 -267 128 -300 4 -5
28 -37 52 -70 187 -253 482 -419 836 -470 107 -16 387 -22 480 -11 47 6 121
16 140 20 68 13 138 28 150 33 8 3 23 8 32 9 57 12 280 115 308 144 3 3 25 19
49 35 60 41 189 167 238 235 89 123 175 311 198 435 2 11 7 31 10 45 11 49 19
146 19 245 1 185 -25 323 -85 460 -9 22 -24 58 -33 80 -23 53 -136 221 -183
270 -55 57 -159 145 -171 145 -6 0 -12 4 -14 8 -4 9 -124 79 -190 109 -57 27
-183 72 -223 79 -40 8 -59 12 -65 15 -3 1 -9 3 -15 4 -5 1 -28 5 -50 8 -22 4
-56 10 -75 13 -36 6 -377 14 -382 9z m292 -796 c88 -31 168 -81 212 -133 28
-33 67 -117 75 -161 22 -124 -6 -286 -64 -364 -55 -74 -163 -149 -241 -165
-15 -4 -38 -9 -52 -12 -99 -21 -258 14 -354 78 -69 47 -139 155 -155 244 -9
46 -7 210 2 249 32 130 151 235 307 272 64 15 217 10 270 -8z"/>
</g>
</svg>
