<svg xmlns="http://www.w3.org/2000/svg"  viewBox="0 0 50 50" width="25px" height="25px"><path fill="#ffffff" d="M 17.722656 10 C 10.560656 10 10 10.560656 10 17.722656 L 10 32.277344 C 10 39.439344 10.560656 40 17.722656 40 L 32.277344 40 C 39.439344 40 40 39.439344 40 32.277344 L 40 17.769531 C 40 10.563531 39.436469 10 32.230469 10 L 17.722656 10 z M 17 11 L 33 11 C 38.565 11 39 11.435 39 17 L 39 33 C 39 38.565 38.565 39 33 39 L 17 39 C 11.435 39 11 38.565 11 33 L 11 17 C 11 11.435 11.435 11 17 11 z M 24.162109 19.15625 C 21.042109 19.15625 20.897531 19.888406 21.269531 20.066406 C 21.729531 20.287406 22.359375 20.555375 22.359375 21.859375 C 22.359375 23.770375 22.371313 24.900391 21.820312 24.900391 C 21.269312 24.900391 20.978828 24.643187 19.798828 22.492188 C 18.407828 19.958188 18.416547 19.666016 17.435547 19.666016 L 14.869141 19.666016 C 14.359141 19.666016 14.213797 20.082672 14.341797 20.388672 C 14.503797 20.776672 16.809234 25.992078 19.240234 28.455078 C 21.671234 30.918078 24.153578 30.84375 24.517578 30.84375 L 25.195312 30.84375 C 25.956313 30.84375 26.229922 30.408641 26.294922 30.056641 C 26.515922 28.866641 26.585734 28.164062 27.052734 28.164062 C 27.499734 28.164063 27.774203 28.441844 29.783203 30.464844 C 30.030203 30.713844 30.247391 30.84375 30.900391 30.84375 L 33.888672 30.84375 C 34.430672 30.84375 35.324531 30.754047 34.644531 29.623047 C 34.587531 29.529047 34.247516 28.787766 32.603516 27.259766 C 31.203516 25.954766 31.274094 25.812516 33.121094 23.103516 C 34.601094 20.932516 34.824891 20.535828 34.712891 20.173828 C 34.609891 19.839828 34.481844 19.710938 33.714844 19.710938 C 33.048844 19.710938 31.386609 19.667969 30.849609 19.667969 C 30.037609 19.667969 29.919344 20.263938 28.777344 22.585938 C 27.854344 24.462937 27.377609 25.023438 26.974609 25.023438 C 26.514609 25.023437 26.271484 24.543813 26.271484 22.757812 C 26.271484 20.220813 26.393109 19.15625 24.162109 19.15625 z"/></svg>