<svg width="121" height="33" viewBox="0 0 121 33" fill="none" xmlns="http://www.w3.org/2000/svg">
<path d="M24.116 16.544C25.124 16.348 26.118 16.25 27.098 16.25C28.806 16.25 30.192 16.544 31.256 17.132C32.348 17.692 33.132 18.42 33.608 19.316C34.084 20.184 34.322 21.094 34.322 22.046C34.322 24.258 33.594 26.148 32.138 27.716C30.682 29.256 28.708 30.432 26.216 31.244C23.724 32.028 20.952 32.42 17.9 32.42C9.052 32.42 3.326 29.34 0.722 23.18L3.074 22.592C4.81 22.172 6.28 21.78 7.484 21.416C8.716 21.024 9.794 20.59 10.718 20.114C11.278 21.514 12.076 22.522 13.112 23.138C14.176 23.726 15.632 24.02 17.48 24.02C19.44 24.02 21.036 23.796 22.268 23.348C23.5 22.9 24.116 22.228 24.116 21.332C24.116 20.856 23.878 20.492 23.402 20.24C22.926 19.988 22.17 19.82 21.134 19.736C20.098 19.624 18.642 19.568 16.766 19.568H13.574V12.218H15.506C17.634 12.218 19.37 12.134 20.714 11.966C22.058 11.77 22.73 11.364 22.73 10.748C22.73 10.048 22.366 9.488 21.638 9.068C20.938 8.62 19.832 8.396 18.32 8.396C16.36 8.396 14.764 8.802 13.532 9.614C12.328 10.426 11.39 11.602 10.718 13.142C7.722 11.938 4.53 11.084 1.142 10.58C2.486 7.556 4.544 5.218 7.316 3.566C10.116 1.914 13.714 1.088 18.11 1.088C20.966 1.088 23.528 1.466 25.796 2.222C28.092 2.95 29.884 3.972 31.172 5.288C32.488 6.604 33.146 8.074 33.146 9.698C33.146 10.65 32.922 11.504 32.474 12.26C32.026 12.988 31.144 13.716 29.828 14.444C28.512 15.144 26.608 15.844 24.116 16.544ZM58.5921 16.544C59.6001 16.348 60.5941 16.25 61.5741 16.25C63.2821 16.25 64.6681 16.544 65.7321 17.132C66.8241 17.692 67.6081 18.42 68.0841 19.316C68.5601 20.184 68.7981 21.094 68.7981 22.046C68.7981 24.258 68.0701 26.148 66.6141 27.716C65.1581 29.256 63.1841 30.432 60.6921 31.244C58.2001 32.028 55.4281 32.42 52.3761 32.42C43.5281 32.42 37.8021 29.34 35.1981 23.18L37.5501 22.592C39.2861 22.172 40.7561 21.78 41.9601 21.416C43.1921 21.024 44.2701 20.59 45.1941 20.114C45.7541 21.514 46.5521 22.522 47.5881 23.138C48.6521 23.726 50.1081 24.02 51.9561 24.02C53.9161 24.02 55.5121 23.796 56.7441 23.348C57.9761 22.9 58.5921 22.228 58.5921 21.332C58.5921 20.856 58.3541 20.492 57.8781 20.24C57.4021 19.988 56.6461 19.82 55.6101 19.736C54.5741 19.624 53.1181 19.568 51.2421 19.568H48.0501V12.218H49.9821C52.1101 12.218 53.8461 12.134 55.1901 11.966C56.5341 11.77 57.2061 11.364 57.2061 10.748C57.2061 10.048 56.8421 9.488 56.1141 9.068C55.4141 8.62 54.3081 8.396 52.7961 8.396C50.8361 8.396 49.2401 8.802 48.0081 9.614C46.8041 10.426 45.8661 11.602 45.1941 13.142C42.1981 11.938 39.0061 11.084 35.6181 10.58C36.9621 7.556 39.0201 5.218 41.7921 3.566C44.5921 1.914 48.1901 1.088 52.5861 1.088C55.4421 1.088 58.0041 1.466 60.2721 2.222C62.5681 2.95 64.3601 3.972 65.6481 5.288C66.9641 6.604 67.6221 8.074 67.6221 9.698C67.6221 10.65 67.3981 11.504 66.9501 12.26C66.5021 12.988 65.6201 13.716 64.3041 14.444C62.9881 15.144 61.0841 15.844 58.5921 16.544ZM76.7722 16.586C75.0082 16.586 73.4962 16.264 72.2362 15.62C70.9762 14.948 70.0102 14.038 69.3382 12.89C68.6942 11.742 68.3722 10.454 68.3722 9.026C68.3722 7.626 68.6942 6.352 69.3382 5.204C70.0102 4.056 70.9762 3.16 72.2362 2.516C73.4962 1.844 75.0082 1.508 76.7722 1.508C78.5362 1.508 80.0482 1.844 81.3082 2.516C82.5682 3.16 83.5202 4.056 84.1642 5.204C84.8362 6.352 85.1722 7.626 85.1722 9.026C85.1722 10.454 84.8362 11.742 84.1642 12.89C83.5202 14.038 82.5682 14.948 81.3082 15.62C80.0482 16.264 78.5362 16.586 76.7722 16.586ZM76.7722 11.756C77.5282 11.756 78.1722 11.518 78.7042 11.042C79.2642 10.566 79.5442 9.88 79.5442 8.984C79.5442 8.116 79.2642 7.472 78.7042 7.052C78.1722 6.604 77.5282 6.38 76.7722 6.38C75.9602 6.38 75.2882 6.604 74.7562 7.052C74.2522 7.472 74.0002 8.116 74.0002 8.984C74.0002 9.88 74.2662 10.566 74.7982 11.042C75.3302 11.518 75.9882 11.756 76.7722 11.756ZM84.7489 28.388C85.7009 26.96 86.4849 25.63 87.1009 24.398C87.7449 23.166 88.3609 21.738 88.9489 20.114C90.9369 21.262 93.2469 22.158 95.8789 22.802C98.5109 23.446 100.961 23.768 103.229 23.768C105.553 23.768 107.191 23.572 108.143 23.18C109.095 22.76 109.571 22.312 109.571 21.836C109.571 20.128 106.967 19.274 101.759 19.274C96.0469 19.274 91.9029 18.686 89.3269 17.51C86.7509 16.306 85.4629 14.374 85.4629 11.714C85.4629 7.934 87.0309 5.148 90.1669 3.356C93.3029 1.564 97.3769 0.667998 102.389 0.667998C105.301 0.667998 108.283 1.046 111.335 1.802C114.415 2.53 117.187 3.538 119.651 4.826C118.839 6.674 117.985 8.928 117.089 11.588C116.921 12.148 116.781 12.568 116.669 12.848C115.241 11.7 113.085 10.748 110.201 9.992C107.317 9.208 104.769 8.816 102.557 8.816C99.8969 8.816 98.1049 8.998 97.1809 9.362C96.2569 9.698 95.7949 10.202 95.7949 10.874C95.7949 11.546 96.4249 12.092 97.6849 12.512C98.9729 12.904 100.821 13.1 103.229 13.1C109.165 13.1 113.477 13.786 116.165 15.158C118.853 16.502 120.197 18.574 120.197 21.374C120.197 25.294 118.769 28.122 115.913 29.858C113.057 31.566 108.731 32.42 102.935 32.42C99.8269 32.42 96.6629 32.084 93.4429 31.412C90.2229 30.712 87.3249 29.704 84.7489 28.388Z" fill="black"/>
</svg>
